<mxfile host="Electron" agent="Mozilla/5.0 (Windows NT 10.0; Win64; x64) AppleWebKit/537.36 (KHTML, like Gecko) draw.io/24.7.17 Chrome/128.0.6613.36 Electron/32.0.1 Safari/537.36" version="24.7.17">
  <diagram name="第 1 页" id="R_x7ye6BwM75tNv4gjE3">
    <mxGraphModel dx="717" dy="707" grid="1" gridSize="10" guides="1" tooltips="1" connect="1" arrows="1" fold="1" page="1" pageScale="1" pageWidth="827" pageHeight="1169" math="0" shadow="0">
      <root>
        <mxCell id="0" />
        <mxCell id="1" parent="0" />
        <mxCell id="UksXFX2MByhLqDVAagmN-3" style="edgeStyle=orthogonalEdgeStyle;rounded=0;orthogonalLoop=1;jettySize=auto;html=1;exitX=0.5;exitY=1;exitDx=0;exitDy=0;entryX=0.5;entryY=0;entryDx=0;entryDy=0;" edge="1" parent="1" source="UksXFX2MByhLqDVAagmN-1" target="UksXFX2MByhLqDVAagmN-2">
          <mxGeometry relative="1" as="geometry" />
        </mxCell>
        <mxCell id="UksXFX2MByhLqDVAagmN-1" value="类加载检查" style="rounded=0;whiteSpace=wrap;html=1;" vertex="1" parent="1">
          <mxGeometry x="160" y="40" width="120" height="60" as="geometry" />
        </mxCell>
        <mxCell id="UksXFX2MByhLqDVAagmN-6" style="edgeStyle=orthogonalEdgeStyle;rounded=0;orthogonalLoop=1;jettySize=auto;html=1;exitX=0.5;exitY=1;exitDx=0;exitDy=0;entryX=0.5;entryY=0;entryDx=0;entryDy=0;" edge="1" parent="1" source="UksXFX2MByhLqDVAagmN-2" target="UksXFX2MByhLqDVAagmN-5">
          <mxGeometry relative="1" as="geometry" />
        </mxCell>
        <mxCell id="UksXFX2MByhLqDVAagmN-7" value="是" style="edgeLabel;html=1;align=center;verticalAlign=middle;resizable=0;points=[];" vertex="1" connectable="0" parent="UksXFX2MByhLqDVAagmN-6">
          <mxGeometry x="-0.2" y="-1" relative="1" as="geometry">
            <mxPoint as="offset" />
          </mxGeometry>
        </mxCell>
        <mxCell id="UksXFX2MByhLqDVAagmN-8" style="edgeStyle=orthogonalEdgeStyle;rounded=0;orthogonalLoop=1;jettySize=auto;html=1;exitX=1;exitY=0.5;exitDx=0;exitDy=0;entryX=0.5;entryY=0;entryDx=0;entryDy=0;" edge="1" parent="1" source="UksXFX2MByhLqDVAagmN-2" target="UksXFX2MByhLqDVAagmN-4">
          <mxGeometry relative="1" as="geometry" />
        </mxCell>
        <mxCell id="UksXFX2MByhLqDVAagmN-9" value="否" style="edgeLabel;html=1;align=center;verticalAlign=middle;resizable=0;points=[];" vertex="1" connectable="0" parent="UksXFX2MByhLqDVAagmN-8">
          <mxGeometry x="-0.4333" relative="1" as="geometry">
            <mxPoint as="offset" />
          </mxGeometry>
        </mxCell>
        <mxCell id="UksXFX2MByhLqDVAagmN-2" value="类是否加载" style="rhombus;whiteSpace=wrap;html=1;" vertex="1" parent="1">
          <mxGeometry x="160" y="140" width="120" height="80" as="geometry" />
        </mxCell>
        <mxCell id="UksXFX2MByhLqDVAagmN-10" style="edgeStyle=orthogonalEdgeStyle;rounded=0;orthogonalLoop=1;jettySize=auto;html=1;exitX=0;exitY=0.5;exitDx=0;exitDy=0;entryX=1;entryY=0.5;entryDx=0;entryDy=0;" edge="1" parent="1" source="UksXFX2MByhLqDVAagmN-4" target="UksXFX2MByhLqDVAagmN-5">
          <mxGeometry relative="1" as="geometry" />
        </mxCell>
        <mxCell id="UksXFX2MByhLqDVAagmN-4" value="加载类" style="rounded=0;whiteSpace=wrap;html=1;" vertex="1" parent="1">
          <mxGeometry x="320" y="260" width="120" height="60" as="geometry" />
        </mxCell>
        <mxCell id="UksXFX2MByhLqDVAagmN-13" value="" style="edgeStyle=orthogonalEdgeStyle;rounded=0;orthogonalLoop=1;jettySize=auto;html=1;" edge="1" parent="1" source="UksXFX2MByhLqDVAagmN-5" target="UksXFX2MByhLqDVAagmN-11">
          <mxGeometry relative="1" as="geometry" />
        </mxCell>
        <mxCell id="UksXFX2MByhLqDVAagmN-5" value="分配内存" style="rounded=0;whiteSpace=wrap;html=1;" vertex="1" parent="1">
          <mxGeometry x="160" y="260" width="120" height="60" as="geometry" />
        </mxCell>
        <mxCell id="UksXFX2MByhLqDVAagmN-15" value="" style="edgeStyle=orthogonalEdgeStyle;rounded=0;orthogonalLoop=1;jettySize=auto;html=1;" edge="1" parent="1" source="UksXFX2MByhLqDVAagmN-11" target="UksXFX2MByhLqDVAagmN-14">
          <mxGeometry relative="1" as="geometry" />
        </mxCell>
        <mxCell id="UksXFX2MByhLqDVAagmN-11" value="初始化" style="rounded=0;whiteSpace=wrap;html=1;" vertex="1" parent="1">
          <mxGeometry x="160" y="360" width="120" height="60" as="geometry" />
        </mxCell>
        <mxCell id="UksXFX2MByhLqDVAagmN-17" value="" style="edgeStyle=orthogonalEdgeStyle;rounded=0;orthogonalLoop=1;jettySize=auto;html=1;" edge="1" parent="1" source="UksXFX2MByhLqDVAagmN-14" target="UksXFX2MByhLqDVAagmN-16">
          <mxGeometry relative="1" as="geometry" />
        </mxCell>
        <mxCell id="UksXFX2MByhLqDVAagmN-14" value="设置对象头" style="rounded=0;whiteSpace=wrap;html=1;" vertex="1" parent="1">
          <mxGeometry x="160" y="460" width="120" height="60" as="geometry" />
        </mxCell>
        <mxCell id="UksXFX2MByhLqDVAagmN-16" value="执行&amp;lt;init&amp;gt;方法" style="rounded=0;whiteSpace=wrap;html=1;" vertex="1" parent="1">
          <mxGeometry x="160" y="560" width="120" height="60" as="geometry" />
        </mxCell>
      </root>
    </mxGraphModel>
  </diagram>
</mxfile>
